<svg width="1644" height="160" xmlns="http://www.w3.org/2000/svg" xmlns:xlink="http://www.w3.org/1999/xlink"><defs><linearGradient x1="52.044%" y1="48.945%" x2="50%" y2="53.048%" id="b"><stop stop-color="#DEE2FE" offset="0%"/><stop stop-color="#B3E5F3" offset="100%"/></linearGradient><linearGradient x1="50.12%" y1="0%" x2="50.12%" y2="100%" id="s"><stop stop-color="#72AA27" offset="0%"/><stop stop-color="#6A9720" offset="32%"/><stop stop-color="#668C1B" offset="65%"/><stop stop-color="#64881A" offset="100%"/></linearGradient><linearGradient x1="50%" y1="100%" x2="50%" y2="0%" id="r"><stop stop-color="#72AA27" offset="0%"/><stop stop-color="#6A9720" offset="32%"/><stop stop-color="#668C1B" offset="65%"/><stop stop-color="#64881A" offset="100%"/></linearGradient><linearGradient x1="43.314%" y1="77.396%" x2="63.518%" y2="50%" id="e"><stop stop-color="#FFF" offset="0%"/><stop stop-color="#939FFF" offset="100%"/></linearGradient><linearGradient x1="50%" y1="100%" x2="50%" y2="0%" id="q"><stop stop-color="#72AA27" offset="0%"/><stop stop-color="#6A9720" offset="32%"/><stop stop-color="#668C1B" offset="65%"/><stop stop-color="#64881A" offset="100%"/></linearGradient><linearGradient x1="49.979%" y1="100%" x2="49.979%" y2="0%" id="p"><stop stop-color="#649B1A" offset="3%"/><stop stop-color="#669D1C" offset="50%"/><stop stop-color="#6DA422" offset="70%"/><stop stop-color="#78B12D" offset="85%"/><stop stop-color="#89C23C" offset="98%"/><stop stop-color="#8CC63F" offset="100%"/></linearGradient><path d="M620.92 20.462c-54.161-45.085-93.556-7.71-141.006 35.462-47.45 43.173-101.055 4.754-159.032 4.754-57.976 0-44.463 19.48-96.245 19.48-34.521 0-63.031-15.586-85.53-46.757C110.663-4.415 75.01-9.814 32.147 17.2c-42.863 27.017-42.863 74.616 0 142.799H620.92c36.107-62.968 36.107-109.48 0-139.538z" id="a"/><path d="m67.35.07-3.149 1.215c-.54.209-.811.817-.605 1.361L65.96 8.87c.046.12.07.248.07.377v9.424c0 .365-.187.703-.495.896l-4.448 2.787c-.398.25-.583.733-.454 1.186l3.007 10.554a1.056 1.056 0 0 1-.705 1.3L57.68 37c-.27.083-.496.271-.627.523l-3.137 6.044a1.06 1.06 0 0 1-.497.473l-15.195 6.956a1.056 1.056 0 0 0-.616.96v2.364c0 .487-.331.91-.803 1.025l-13.03 3.187a1.054 1.054 0 0 0-.742.675l-1.735 4.929c-.114.322-.376.57-.703.664L.765 70.48c-1.073.308-.997 1.86.102 2.056 62.595 11.12 243.497-3.824 270.814-6.176 1.04-.09 1.327-1.478.41-1.979l-4.657-2.548-5.986-3.432a1.074 1.074 0 0 0-.319-.12l-10.166-2.004a1.052 1.052 0 0 1-.61-.366l-7.592-9.268a1.057 1.057 0 0 1-.239-.67V38.93c0-1.059-.718-1.984-1.742-2.243l-3.394-.86a1.036 1.036 0 0 0-.259-.033h-6.1c-.278 0-.546-.111-.743-.309a24.16 24.16 0 0 1-5.388-8.25l-1.11-2.83a5.223 5.223 0 0 0-3.3-3.082 24.846 24.846 0 0 1-6.069-2.85l-7.963-5.152a1.1 1.1 0 0 1-.137-.106L201.8 9.098a9.225 9.225 0 0 0-7.347-2.341l-15.392 1.9a42.414 42.414 0 0 1-6.435.3l-32.912-.96-25.758-1.746a1.05 1.05 0 0 0-.403.052L106.6 8.627a1.048 1.048 0 0 1-.45.048L94.634 7.39a1.053 1.053 0 0 0-1.129.76l-.406 1.426a1.063 1.063 0 0 0-.038.365l.323 4.531c.01.138.047.273.109.397l3.655 7.331c.073.146.11.308.11.472v7.64c0 .135-.024.268-.075.393l-.719 1.803c-.388.973-1.802.845-2.009-.184l-.995-4.946a1.051 1.051 0 0 0-.276-.526l-2.157-2.23a1.085 1.085 0 0 0-.186-.154l-4.327-2.79a1.057 1.057 0 0 1-.484-.887v-6.655c0-.105-.015-.21-.046-.31L83.27 4.98c-.03-.1-.047-.205-.047-.31V2.717c0-.583-.47-1.055-1.052-1.055-.582 0-1.053.472-1.053 1.055v7.63c0 .074-.007.148-.023.221l-1.976 9.247c-.067.314-.273.58-.559.723l-.129.066c-.7.35-1.524-.16-1.524-.945v-7.25c0-.34-.163-.66-.44-.859l-4.03-2.887a1.057 1.057 0 0 1-.442-.858v-5.14c0-.399-.225-.764-.582-.943L68.2.11A1.045 1.045 0 0 0 67.35.07z" id="n"/><path id="h" d="M0 0h4.315v4.323H0z"/><path id="f" d="M0 0h4.315v4.323H0z"/><path d="M-464.883 160c-42.862-68.183-42.862-115.782 0-142.798 42.862-27.016 78.516-21.617 106.96 16.199 22.5 31.17 51.009 46.756 85.53 46.756 51.782 0 38.27-19.479 96.246-19.479 57.976 0 111.581 38.419 159.031-4.754C17.094 24.8 47.117-3.313 81.504.317c21.69-.162 40.891 10.866 57.603 33.084 22.499 31.17 51.009 46.756 85.53 46.756 51.782 0 38.269-19.479 96.245-19.479 57.977 0 111.582 38.419 159.032-4.754C514.124 24.8 544.147-3.313 578.534.317c21.69-.162 40.891 10.866 57.603 33.084 22.499 31.17 51.009 46.756 85.53 46.756 51.782 0 38.269-19.479 96.245-19.479 57.977 0 111.582 38.419 159.032-4.754 47.45-43.172 86.845-80.547 141.005-35.462 36.108 30.057 36.108 76.57 0 139.538z" id="c"/><path id="j" d="M0 0h3.651v3.658H0z"/><ellipse id="l" cx="23.201" cy="23.24" rx="23.201" ry="23.24"/></defs><g fill="none" fill-rule="evenodd"><g transform="translate(498)"><use fill="url(#b)" xlink:href="#a"/><mask id="d" fill="#fff"><use xlink:href="#c"/></mask><use fill="#DEE2FE" xlink:href="#c"/><g mask="url(#d)" fill="#E9E9FF"><g transform="translate(-506.337 105.972)"><ellipse cx="829.13" cy="31.401" rx="486.172" ry="31.401"/><path d="M0 25.88h1655.157v114.909H0z"/></g></g></g><path d="M0 56.785a174.732 174.732 0 0 1 2.324-8.225c.395-1.33.813-2.587 1.22-3.886l1.248-3.767A148.927 148.927 0 0 1 7.4 33.826c.896-2.25 1.794-4.499 2.693-6.748l2.665-6.842 2.68-6.783C17.23 8.97 19.025 4.435 20.82 0l.092.376c-1.663 5.03-3.35 9.96-5.021 14.942l-2.522 7.403-2.542 7.355c-.84 2.468-1.68 4.95-2.515 7.445a145.979 145.979 0 0 1-2.598 7.153l-1.358 3.302c-.46 1.067-.913 2.175-1.384 3.212a81.144 81.144 0 0 1-2.881 6.003L0 56.785z" transform="rotate(45 452.307 1245.583)" fill="url(#e)" fill-rule="nonzero" opacity=".7"/><g transform="translate(641.423 79.552)"><mask id="g" fill="#fff"><use xlink:href="#f"/></mask><path d="m2.158 4.323-.447-.925a1.392 1.392 0 0 0-.58-.613L0 2.161l1.098-.57c.272-.142.49-.37.62-.648L2.158 0l.44.943c.13.279.347.506.62.647l1.097.571-1.13.624c-.252.14-.455.354-.58.613l-.447.925z" fill="#FFF" mask="url(#g)"/></g><g opacity=".729" transform="translate(945.087 89.904)"><mask id="i" fill="#fff"><use xlink:href="#h"/></mask><path d="m2.158 4.323-.447-.925a1.392 1.392 0 0 0-.58-.613L0 2.161l1.098-.57c.272-.142.49-.37.62-.648L2.158 0l.44.943c.13.279.347.506.62.647l1.097.571-1.13.624c-.252.14-.455.354-.58.613l-.447.925z" fill="#FFF" mask="url(#i)"/></g><g transform="translate(1038.145 41.561)"><mask id="k" fill="#fff"><use xlink:href="#j"/></mask><path d="m1.826 3.658-.379-.783c-.106-.22-.277-.4-.49-.518L0 1.829l.93-.483c.23-.12.414-.312.524-.548L1.826 0l.372.798c.11.236.294.428.524.548l.93.483-.957.528a1.178 1.178 0 0 0-.491.518l-.378.783z" fill="#FFF" mask="url(#k)"/></g><g transform="translate(614.846 45.174)"><ellipse fill="#FFF" cx="6.369" cy="6.207" rx="6.369" ry="6.207"/><path d="m10.055 11.058-.023.018a6.231 6.231 0 0 1-3.875 1.337c-3.4 0-6.157-2.686-6.157-6 0-1.442.522-2.766 1.392-3.8.77 4.3 4.25 7.694 8.663 8.445z" fill="#D0D0D0" opacity=".674"/><ellipse fill="#E0E0E0" opacity=".569" cx="6.721" cy="2.588" rx="1.206" ry="1.208"/><ellipse fill="#E0E0E0" opacity=".569" cx="8.445" cy="6.729" rx="1.206" ry="1.208"/></g><g transform="rotate(-15 484.605 -2639.53)"><mask id="m" fill="#fff"><use xlink:href="#l"/></mask><use fill="#939FFF" xlink:href="#l"/><g mask="url(#m)"><path d="M4.637.512c3.772 3.884 7.927 5.983 13.547 5.353 2.623-.294 4.573-1.795 7.327-1.006 11.668 3.342 2.557 3.14 12.547 3.883 1.558.116 3.153.301 4.686 0 1.42-.279 2.876-2.627 3.991-1.705 1.62 1.34 2.663 4.479 1.395 6.157-2.08 2.752-6.934-.669-9.153-1.104-3.304-.649-6.421 2.6-9.43 1.304-2.852-1.23-5.447-5.17-9.23-4.16-9.435 2.516-2.943 4.17-14.715 5.475-2.388.265-8.14 2.405-7.204.188l-2.265-.98C15.298-31.518-.817 15.299 3.941 1.25l.696-.738zM-3.545 21.45c7.153 1.358 11.496-1.858 18.156-4.357 4.61-1.729 7.744.657 12.2 1.19 4.981.597 2.668-1.081 6.853-2.258 3.47-.976 8.285 1.757 10.967 2.2 1.648.271 3.418-.678 5.008-.166.6.193-.79 1.014-1.322 1.352-.891.568-1.826 1.388-2.88 1.322-1.74-.107-3.222-1.366-4.91-1.804a2.672 2.672 0 0 0-1.615.109c-1.743.689-3.411 1.57-5.03 2.518-.874.511-1.421 1.657-2.417 1.84-1.665.309-3.472.132-5.06-.458-2.331-.866-4.173-2.74-6.421-3.804-.785-.371-1.772-.804-2.564-.45-1.752.783-2.904 2.526-4.492 3.604-1.067.724-2.374 1.043-3.434 1.777-1.324.916-2.323 2.26-3.67 3.142C4.107 28.33 2.3 29.372.361 30.043c-.863.298-2.358.831-2.737 0-1.091-2.398-.56-5.24-.841-7.86l-.328-.732zM.322 34.397c5.26-.138 9.118.13 13.79-2.183 5.181-2.563 10.161-7.092 16.374-6.3 4.56.58 6.96 5.026 12.005 4.518 2.092-.21 5.285-2.918 6.222-1.033 1.196 2.408-.578 6.357-3.017 7.481-2.38 1.097-4.845-2.05-7.387-2.687a7.079 7.079 0 0 0-3.34 0c-1.106.268-1.932 1.304-3.043 1.548-3.02.664-5.33-2.014-8.379-.975-10.096 3.44-8.237 5.518-17.594 4.085-.685-.105-1.66.61-2.079.057l-1.43.676c-.95-1.257-.972-2.998-1.458-4.498l-.664-.69zM9.667 45.586c8.417-8.525 20.98-2.502 31.128-3.494 1.831-.179 3.85-2.557 5.326-1.456 1.173.875-1.92 2.245-3.093 3.121-1.172.876-2.462 1.664-3.864 2.078-5.682 1.679-11.076-4.208-17.044-2.194-2.187.739-3.518 3.063-5.57 4.123-1.025.529-2.276.659-3.421.519-1.022-.125-2.084-.55-2.811-1.28-.488-.489-.317-1.346-.476-2.02" fill="#BBC3FF"/><path d="m33.693 48.682-.141.052a26.7 26.7 0 0 1-17.851.14C1.685 44.048-5.76 28.754-.924 14.715A26.797 26.797 0 0 1 9.669 1.031c-2.69 19.257 6.884 38.356 24.024 47.651z" fill-opacity=".45" fill="#4450A5"/></g></g><g transform="rotate(1 -1975.694 38004.702)"><mask id="o" fill="#fff"><use xlink:href="#n"/></mask><path fill="#E9E9FF" mask="url(#o)" d="M-5.164 92.833h281.949V-15.519H-5.165z"/><path d="M249.252 51.584c-1.817.41-3.655.952-5.5 1.24-.804.125-1.468-.23-2.194-.48a9.607 9.607 0 0 0-2.27-.466c-1.554-.14-3.048.145-4.48.678-.745.278-1.493.613-2.291.751-.943.164-1.805-.097-2.714-.294-3.459-.753-6.818.116-10.267.417-3.59.313-7.223-.298-10.817-.358-4.245-.07-8.487.163-12.723.395a1.09 1.09 0 0 0-.56.182c-.031-.006-.06-.015-.093-.02a59.665 59.665 0 0 0-8.69-.337c-.111.004-.208.026-.297.056l-2.414-.021c-1.574-.014-3.155-.066-4.728.002-.766.034-1.533.105-2.286.237-.375.065-.75.163-1.133.191a2.758 2.758 0 0 1-1.042-.134c-.666-.206-1.282-.5-1.977-.63-.738-.14-1.497-.17-2.25-.164-1.765.013-3.53.08-5.295.122-.723.017-.726 1.03 0 1.012 1.576-.037 3.151-.077 4.726-.112.72-.016 1.452-.032 2.167.062.73.095 1.374.352 2.053.594.728.26 1.426.315 2.198.194.771-.122 1.518-.275 2.302-.329 1.544-.105 3.1-.05 4.647-.037l1.25.01a.546.546 0 0 0 .487.264l.841-.051c.135.215.385.367.75.355a59.665 59.665 0 0 1 8.69.337c.097.011.182.006.262-.006.115.036.244.055.392.046 3.799-.208 7.6-.416 11.407-.406 3.697.01 7.415.593 11.104.439 3.503-.147 7.063-1.323 10.564-.594 1.643.343 3.048.653 4.7.156 1.61-.485 3.018-1.236 4.769-1.222 1.8.014 3.346 1.152 5.119 1.01 2.042-.163 4.146-.882 6.132-1.33 1.265-.287.73-2.046-.54-1.759M28.472 53.124c1.386.41 2.79.952 4.197 1.24.613.125 1.12-.23 1.674-.48a5.874 5.874 0 0 1 1.731-.467c1.186-.14 2.326.146 3.419.678.569.278 1.139.613 1.749.752.719.163 1.377-.097 2.07-.295 2.64-.753 5.202.117 7.835.418 2.738.312 5.51-.298 8.253-.358 3.24-.07 6.477.162 9.709.395.173.012.314.08.428.181.023-.006.045-.015.07-.019a34.85 34.85 0 0 1 6.631-.337.626.626 0 0 1 .226.055l1.843-.02c1.2-.014 2.407-.067 3.607.002.584.034 1.17.104 1.745.236.286.066.572.164.864.192.28.026.531-.027.795-.135.508-.205.978-.5 1.508-.63.564-.138 1.143-.17 1.718-.163 1.346.013 2.693.08 4.04.121.552.017.554 1.03 0 1.013-1.203-.037-2.404-.077-3.606-.112-.55-.016-1.109-.032-1.654.06-.558.096-1.048.354-1.566.595a2.558 2.558 0 0 1-1.678.194c-.587-.122-1.158-.274-1.756-.328-1.178-.106-2.366-.052-3.546-.038l-.954.01c-.075.159-.214.278-.372.265l-.641-.052c-.103.216-.293.368-.573.355a34.85 34.85 0 0 0-6.63.338.561.561 0 0 1-.2-.007.657.657 0 0 1-.3.047c-2.898-.208-5.799-.417-8.703-.407-2.822.01-5.658.594-8.473.439-2.674-.147-5.39-1.322-8.06-.593-1.255.342-2.328.652-3.588.155-1.228-.484-2.302-1.235-3.638-1.221-1.374.013-2.553 1.152-3.906 1.01-1.559-.163-3.164-.882-4.68-1.331-.965-.286-.556-2.045.412-1.758M20.767 59.944v4.86s11.847-3.073 18.972 0c7.125 3.072 19.469-.144 24.854.5 5.385.642 20.214-1.072 20.214-1.072s3.729-1.072 6.876 0c3.149 1.071 13.865-1.93 13.865-1.93s-6.657.5-9.474 1.072c-2.816.572-4.805-2.644-9.61-1.858s-1.077 1.424-9.692 1.534c-8.617.11-3.149-1.39-9.113-.962-5.966.429-8.12 2.858-17.979 2.144-9.858-.715-3.81-2.43-12.84-3.787-9.031-1.358-4.971 2-10.77 1-5.8-1-5.303-1.5-5.303-1.5M248.96 48.897l.064-2.713s-7.79 1.577-12.41-.223c-4.621-1.799-12.738-.148-16.253-.57-3.514-.422-13.238.361-13.238.361s-2.452.555-4.498-.08c-2.045-.636-9.094.915-9.094.915s4.36-.202 6.21-.488c1.85-.286 3.11 1.533 6.263 1.15s.723-.782 6.36-.743c5.638.04 2.042.814 5.95.645 3.907-.17 5.348-1.501 11.788-.987 6.44.515 2.461 1.402 8.35 2.266 5.89.864 3.279-1.06 7.06-.433 3.78.627 3.448.9 3.448.9M104.389 4.934l2.077 9.402-2.077 3.419 1.039 5.983s-3.692 10.93-10.258 8.243l1.327-4.397-3.205-8.914-3.026-11.386L94.628.66l9.76 4.274zM79.927.171v8.126l-3.165 12.37s-.429 3.133 1.583 2.705c2.011-.427 2.976-4.811 2.976-4.811l1.607-.855v-2.46l-1.286-.32.107-2.032 1.179-.427v-2.245l-.429-2.246-.428-1.176-.322-1.925.322-1.71.2-1.167.657-3.43L79.392.17h.535zM67.68-.85l-1.176 4.497 1.175 4.287 3.206 4.078-1.176 4.392-1.496 1.569 3.313 1.254-2.03.628h-2.992l-5.664-1.36.963-13.803 3.525-5.541zM62.849 20.602l1.062 3.971 2.6 2.36.862 2.362-.431 3.985-4.093 2.85-2.626-2.328-1.467-10.946zM57.102 35.59l1.854 3.308-.436 3.777-3.6 1.541H50.34z" fill="#C7C7F0" mask="url(#o)"/><path fill="#C7C7F0" mask="url(#o)" d="m45.007 45.197-2.985 9.777-1.13.92-4.425-.54-5.247-4.107 8.642-3.89zM27.569 55.682l-.853 5.66-2.944 1.705-3.786-.943V54.42zM168.291 23.493l-1.84-.952-3.438-.403-3.2-.643s-2.08.321-2.48.482c-.4.161-4.985-.08-4.985-.08l-4.452.597s-3.279-.356-3.52-.356c-.24 0-4.318.356-4.318.356l-3.194.798H132.1l3.999 1s4.079.355 4.32.355c.239 0 3.518-.356 3.518-.356l4.452.597s4.586-.241 4.986-.08c.4.16 2.48.483 2.48.483l3.198-.644 3.44-.403 1.45-.75h4.348zM164.397 17.345l.823-.346 1.54-.147 1.432-.234s.93.117 1.11.176c.178.058 2.232-.03 2.232-.03l1.992.218s1.468-.13 1.575-.13c.108 0 1.934.13 1.934.13l1.43.29h2.132l-1.79.363s-1.826.13-1.934.13c-.107 0-1.574-.13-1.574-.13l-1.993.217s-2.053-.088-2.232-.029c-.18.058-1.11.176-1.11.176l-1.432-.235-1.54-.146-.65-.273h-1.945z"/><path d="m152.655 55.724-.824.346-1.54.146-1.431.234s-.931-.116-1.11-.175c-.18-.059-2.232.029-2.232.029l-1.993-.217s-1.468.13-1.575.13c-.107 0-1.934-.13-1.934-.13l-1.429-.29h-2.132l1.79-.364s1.825-.129 1.933-.129c.107 0 1.575.13 1.575.13l1.993-.218s2.052.088 2.231.03c.18-.059 1.11-.176 1.11-.176l1.433.234 1.539.146.65.274h1.946z" fill="#EDEDFF" mask="url(#o)"/><path d="m85.439 56.06 1.84-.952 3.439-.403 3.199-.644s2.08.322 2.48.483c.4.161 4.986-.08 4.986-.08l4.451.597s3.28-.356 3.52-.356c.24 0 4.318.356 4.318.356l3.194.798H121.63l-3.999.999s-4.079.355-4.319.355c-.24 0-3.519-.355-3.519-.355l-4.451.597s-4.587-.242-4.986-.08c-.4.16-2.48.482-2.48.482l-3.199-.644-3.44-.402-1.45-.751h-4.348z" fill="#C7C7F0" mask="url(#o)"/></g><g transform="translate(862.625 51.303)"><ellipse fill="#DDF" opacity=".795" cx="39.466" cy="71.775" rx="39.466" ry="6.901"/><g fill-rule="nonzero"><path d="M56.503 48.977s9.645 15.013 9.645 25.363h-2.692s.785-10.012-6.953-10.012V48.977zM21.87 48.977S12.227 63.99 12.227 74.34h2.692s-.785-10.012 6.953-10.012V48.977z" fill="#8DC63F"/><path d="M26.738 0c-3.864 1.999-7.887 11.104-7.887 15.404v37.509h15.781V15.404c0-4.306-4.027-13.416-7.894-15.404z" fill="url(#p)" transform="translate(12.226)"/><path d="M39.187 0c-3.114 1.999-6.356 11.104-6.356 15.404v37.509h12.713V15.404c0-4.306-3.243-13.416-6.357-15.404z" fill="#8DC63F"/><path d="M26.96 0c-1.61 1.999-3.287 11.104-3.287 15.404v37.509h6.576V15.404c0-4.306-1.678-13.416-3.288-15.404z" fill="url(#q)" transform="translate(12.226)"/><path fill="#8DC63F" d="M31.077 17.492H46.86v13.556H31.077z"/><path fill="#0D3956" d="M21.87 63.845h7.453v3.498H21.87z"/><path fill="#1B5E92" d="M21.432 61.221H30.2v3.498h-8.768z"/><path fill="#0D3956" d="M49.05 63.845h7.453v3.498H49.05z"/><path fill="#1B5E92" d="M48.174 61.221h8.768v3.498h-8.768z"/><path d="M26.032 13.556c-3.04 1.991-5.476 11.062-5.476 14.38v34.16h10.96V27.943c0-3.323-2.44-12.396-5.484-14.387z" fill="#DFE5EA"/><path d="M26.032 13.556c-3.04 1.991-5.476 11.062-5.476 14.38v34.16h10.96V27.943c0-3.323-2.44-12.396-5.484-14.387z" fill="#C2CCD3"/><path d="M26.04 13.556c-1.586 1.991-2.854 11.062-2.854 14.381v17.104l5.7-7.668v-9.43c0-3.322-1.262-12.396-2.846-14.387z" fill="#DFE5EA"/><path d="M52.339 13.556c-3.044 1.991-5.48 11.062-5.48 14.38v34.16h10.96V27.943c0-3.323-2.436-12.396-5.48-14.387z" fill="#C2CCD3"/><path d="M52.338 13.556c-1.582 1.991-2.849 11.062-2.849 14.381v9.43l5.7 7.674V27.944c0-3.323-1.268-12.397-2.851-14.388z" fill="#DFE5EA"/><path fill="#0D3956" d="M20.555 27.55h10.96v1h-10.96zM20.555 48.54h10.96v1h-10.96zM20.555 59.909h10.96v1h-10.96zM46.858 27.55h10.96v1h-10.96zM46.858 48.54h10.96v1h-10.96zM46.858 59.909h10.96v1h-10.96z"/><path d="M45.957 29.299H32.415c0 7.539-3.01 14.761-8.352 20.039v4.794l6.036 1.49a3.058 3.058 0 0 1 2.316 2.975h13.542c0-1.411.957-2.64 2.318-2.975l6.036-1.49v-4.794a28.169 28.169 0 0 1-8.354-20.04z" fill="#FFF"/><path d="M54.311 50.778a27.586 27.586 0 0 1-8.354-19.762v-3.348c0-3.7-3.453-11.528-6.771-13.237-3.32 1.709-6.771 9.538-6.771 13.237v3.348c0 7.435-3.01 14.558-8.352 19.762v4.725l6.036 1.472a3.024 3.024 0 0 1 2.316 2.934h13.542a3.022 3.022 0 0 1 2.318-2.934l6.036-1.472v-4.725z" fill="#DFE5EA"/><path d="M24.063 54.662v1.225l6.036 1.49a3.054 3.054 0 0 1 2.316 2.97h13.542a3.052 3.052 0 0 1 2.318-2.97l6.036-1.49v-1.225H24.063z" fill="#88B541"/><path fill="url(#r)" d="m15.343 56.61 1.316.238v-2.186h-1.316zM37.263 56.848l1.315-.238v-1.948h-1.315z" transform="translate(12.226)"/><path d="M39.187 14.43c-3.332 1.71-6.795 9.539-6.795 13.238V59.91h13.59V27.67c0-3.7-3.465-11.53-6.795-13.238z" fill="#FFF"/><path d="M39.187 14.43c-3.332 1.71-6.795 9.539-6.795 13.238V59.91h13.59V27.67c0-3.7-3.465-11.53-6.795-13.238z" fill="#FFF"/><path d="M38.967 14.43c-3.006 1.71-6.136 9.539-6.136 13.238V59.91h12.274V27.67c0-3.7-3.13-11.53-6.138-13.238z" fill="#DFE5EA"/><path d="M39.185 14.43c-2.254 1.71-4.6 9.539-4.6 13.238V59.91h9.205V27.67c0-3.7-2.35-11.53-4.605-13.238z" fill="#FFF"/><path d="M34.584 20.116h9.206c-1.3-2.765-2.98-5.219-4.605-6.123-1.635.904-3.303 3.358-4.6 6.123z" fill="#0D3956"/><path d="M36.338 20.116h5.26c-.743-2.765-1.695-5.219-2.631-6.123-.934.904-1.888 3.358-2.63 6.123z" fill="#1B5E92"/><path fill="#FFF" d="M26.693 49.852H30.2v2.186h-3.507zM48.174 49.852h3.507v2.186h-3.507z"/><path d="M39.406 23.177v2.6c.421.057.82.216 1.161.46l1.908-1.838a5.317 5.317 0 0 0-3.069-1.222zM38.968 23.177a5.32 5.32 0 0 0-3.069 1.222l1.91 1.839c.34-.245.739-.403 1.159-.462v-2.6zM42.99 24.926l-1.83 1.942c.319.448.491.994.491 1.556h2.578c0-1.287-.44-2.53-1.238-3.498zM34.947 24.926a5.493 5.493 0 0 0-1.24 3.498h2.578c0-.562.172-1.108.491-1.556l-1.829-1.942z" fill="#1B5E92"/><path d="M36.776 60.347v-4.512a3.406 3.406 0 0 0-1.4-2.764 3.136 3.136 0 0 0-2.984-.378v1.928a1.592 1.592 0 0 1 1.782-.357 1.704 1.704 0 0 1 1.004 1.571v4.512h1.598zM42.759 60.347v-4.509a1.7 1.7 0 0 1 1.002-1.571 1.592 1.592 0 0 1 1.783.357v-1.926a3.128 3.128 0 0 0-2.99.37 3.39 3.39 0 0 0-1.394 2.77v4.509h1.599z" fill="#DFE5EA"/><path d="M26.74 61.659c-.241-.002-.437-.214-.437-.476v-8.671c0-.262.196-.474.437-.474.242 0 .439.212.44.474v8.67c0 .263-.197.477-.44.477z" fill="url(#s)" transform="translate(12.226)"/><path fill="#0D3956" d="M32.392 60.784H35.9v1.312h-3.507z"/><path fill="#1B5E92" d="M31.953 59.909h3.945v1.312h-3.945z"/><path d="M34.147 52.913c-1.452.003-2.628 1.101-2.632 2.457v5.414h5.261V55.37c-.004-1.355-1.178-2.453-2.63-2.457z" fill="#FFF"/><path d="M33.926 52.913c-1.085 0-1.972 1.105-1.972 2.457v5.414h3.945V55.37c0-1.352-.89-2.457-1.973-2.457z" fill="#DFE5EA"/><path d="M33.926 52.913c-.604 0-1.095 1.105-1.095 2.457v5.414h2.191V55.37c0-1.352-.493-2.457-1.096-2.457z" fill="#FFF"/><path d="M33.926 52.913c-.604 0-1.095 1.105-1.095 2.457v5.414h2.191V55.37c0-1.352-.493-2.457-1.096-2.457z" fill="#FFF"/><path fill="#0D3956" d="M42.475 60.784h3.507v1.312h-3.507z"/><path fill="#1B5E92" d="M42.475 59.909h3.945v1.312h-3.945z"/><path d="M44.227 52.913c-1.45.004-2.625 1.102-2.629 2.457v5.414h5.26V55.37c-.003-1.356-1.179-2.454-2.63-2.457z" fill="#FFF"/><path d="M44.448 52.913c-1.084 0-1.973 1.105-1.973 2.457v5.414h3.945V55.37c0-1.352-.887-2.457-1.972-2.457z" fill="#DFE5EA"/><path d="M44.448 52.913c-.603 0-1.096 1.105-1.096 2.457v5.414h2.192V55.37c0-1.352-.494-2.457-1.096-2.457z" fill="#FFF"/><path fill="#DFE5EA" d="M36.337 31.923h1.754v4.373h-1.754zM40.283 31.923h1.754v4.373h-1.754z"/><g transform="rotate(1 -2123.19 2072.957)"><ellipse fill="#FFF" cx="3.58" cy="3.577" rx="3.58" ry="3.577"/><path d="M2.143 3.568h-.107a.076.076 0 0 1-.063-.062v-.407a.076.076 0 0 1 .063-.063h.107v.532zM2.443 3.63h-.17a.076.076 0 0 1-.067-.062v-.51a.067.067 0 0 1 .067-.062h.17v.635zM5.034 3.568h.107a.072.072 0 0 0 .063-.062v-.407a.072.072 0 0 0-.063-.063h-.107v.532zM4.72 3.63h.17a.067.067 0 0 0 .063-.062v-.51a.063.063 0 0 0-.062-.062h-.17v.635zM3.168 4.753h1v1h-1zM3.526 1.386h1v1h-1z" fill="#8DC63F"/><path fill="#8DC63F" d="M2.403 2.951h2.354v1.802H2.403z"/><ellipse fill="#8DC63F" cx="3.593" cy="2.996" rx="1.186" ry="1.082"/><circle fill="#333" cx="2.935" cy="3.269" r="1"/><circle fill="#333" cx="4.246" cy="3.269" r="1"/><circle fill="#8DC63F" cx="3.593" cy="1.239" r="1"/><path d="M3.593 4.436a1.858 1.858 0 0 1-.662-.13.224.224 0 0 1-.13-.29.246.246 0 0 1 .3-.126c.319.127.674.127.993 0a.22.22 0 0 1 .3.125.215.215 0 0 1-.13.296 1.72 1.72 0 0 1-.67.125z" fill="#FFF"/><path d="M3.07 3.671v1.301l-.05-.033h-.049V3.671h.099zm.349 0h-.05v1.301h.05l.069.033V3.704l-.07-.033zm.418 0v1.301h.05l.068.033V3.704l-.118-.033zm.399 0h-.05v1.301h.05l.068.033V3.704l-.068-.033zM5.522 5.303H1.638a.076.076 0 0 0-.05.063v.532a3.085 3.085 0 0 0 3.987 0v-.532c-.013-.04-.035-.04-.053-.063z" fill="#8DC63F"/><circle fill="#FFF" cx="4.228" cy="5.643" r="1"/><circle fill="#FFF" cx="4.649" cy="5.643" r="1"/><circle fill="#333" cx="5.052" cy="5.643" r="1"/><path d="M3.593 6.645C1.88 6.65.487 5.304.48 3.592A3.104 3.104 0 0 1 3.563.474 3.104 3.104 0 0 1 6.69 3.55a3.095 3.095 0 0 1-3.083 3.095h-.013zm0-5.854A2.798 2.798 0 0 0 1.608 5.57 2.802 2.802 0 0 0 6.39 3.586 2.823 2.823 0 0 0 3.593.791z" fill="#8DC63F"/></g></g><circle fill="#FFF" cx="109.781" cy="18.116" r="1"/></g></g></svg>